<svg xmlns="http://www.w3.org/2000/svg" version="1.1" xmlns:xlink="http://www.w3.org/1999/xlink" width="200" height="200"><svg xmlns="http://www.w3.org/2000/svg" version="1.1" xmlns:xlink="http://www.w3.org/1999/xlink" viewBox="0 0 200 200"><rect width="200" height="200" fill="url('#gradient')"></rect><defs><linearGradient id="SvgjsLinearGradient1001" gradientTransform="rotate(360 0.5 0.5)"><stop offset="0%" stop-color="#f06123"></stop><stop offset="100%" stop-color="#ed992e"></stop></linearGradient></defs><g><g fill="#0d0e20" transform="matrix(2.9514811849479585,0,0,2.9514811849479585,6.834111844510247,120.69160137260505)" stroke="#4d1c2f" stroke-width="0.2"><path d="M6.69-4.82L4.50-4.82L4.50 0L1.07 0L1.07-14.22L6.75-14.22Q8.38-14.22 9.63-13.62Q10.89-13.02 11.58-11.91Q12.27-10.80 12.27-9.39L12.27-9.39Q12.27-7.31 10.78-6.07Q9.29-4.82 6.69-4.82L6.69-4.82ZM4.50-11.57L4.50-7.47L6.75-7.47Q7.74-7.47 8.27-7.97Q8.79-8.47 8.79-9.38L8.79-9.38Q8.79-10.37 8.25-10.97Q7.71-11.56 6.79-11.57L6.79-11.57L4.50-11.57ZM18.93 0.20L18.93 0.20Q16.49 0.20 14.99-1.25Q13.49-2.71 13.49-5.03L13.49-5.03L13.49-5.30Q13.49-6.92 14.09-8.16Q14.69-9.40 15.84-10.08Q16.99-10.76 18.57-10.76L18.57-10.76Q20.80-10.76 22.09-9.38Q23.38-8.00 23.38-5.53L23.38-5.53L23.38-4.25L16.84-4.25Q17.01-3.36 17.61-2.85Q18.20-2.34 19.15-2.34L19.15-2.34Q20.71-2.34 21.59-3.44L21.59-3.44L23.10-1.66Q22.48-0.81 21.35-0.31Q20.22 0.20 18.93 0.20ZM18.55-8.22L18.55-8.22Q17.11-8.22 16.84-6.31L16.84-6.31L20.16-6.31L20.16-6.56Q20.18-7.35 19.76-7.79Q19.34-8.22 18.55-8.22ZM25.24-13.19L28.54-13.19L28.54-10.57L30.27-10.57L30.27-8.28L28.54-8.28L28.54-3.45Q28.54-2.85 28.75-2.62Q28.96-2.38 29.60-2.38L29.60-2.38Q30.09-2.38 30.42-2.44L30.42-2.44L30.42-0.09Q29.53 0.20 28.56 0.20L28.56 0.20Q26.87 0.20 26.05-0.61Q25.24-1.41 25.24-3.04L25.24-3.04L25.24-8.28L23.90-8.28L23.90-10.57L25.24-10.57L25.24-13.19ZM38.02-10.64L37.96-7.59L36.88-7.67Q35.32-7.67 34.88-6.69L34.88-6.69L34.88 0L31.59 0L31.59-10.57L34.68-10.57L34.79-9.21Q35.62-10.76 37.10-10.76L37.10-10.76Q37.63-10.76 38.02-10.64L38.02-10.64ZM38.39-4.82L38.38-5.38Q38.38-6.96 38.99-8.20Q39.61-9.43 40.76-10.10Q41.91-10.76 43.47-10.76L43.47-10.76Q45.84-10.76 47.21-9.29Q48.57-7.82 48.57-5.29L48.57-5.29L48.57-5.18Q48.57-2.71 47.20-1.25Q45.83 0.20 43.49 0.20L43.49 0.20Q41.23 0.20 39.86-1.16Q38.50-2.51 38.39-4.82L38.39-4.82ZM41.68-5.77L41.67-5.18Q41.67-3.71 42.13-3.03Q42.59-2.34 43.49-2.34L43.49-2.34Q45.24-2.34 45.28-5.05L45.28-5.05L45.28-5.38Q45.28-8.22 43.47-8.22L43.47-8.22Q41.82-8.22 41.68-5.77L41.68-5.77ZM62.06-14.22L62.06 0L58.65 0L58.65-5.94L53.60-5.94L53.60 0L50.18 0L50.18-14.22L53.60-14.22L53.60-8.57L58.65-8.57L58.65-14.22L62.06-14.22Z"></path></g></g></svg><style>@media (prefers-color-scheme: light) { :root { filter: none; } }
@media (prefers-color-scheme: dark) { :root { filter: none; } }
</style></svg>